<?xml version="1.0" encoding="iso-8859-1"?>
<!-- Generator: Adobe Illustrator 19.0.0, SVG Export Plug-In . SVG Version: 6.00 Build 0)  -->
<svg version="1.1" id="Layer_1" xmlns="http://www.w3.org/2000/svg" xmlns:xlink="http://www.w3.org/1999/xlink" x="0px" y="0px"
	 viewBox="0 0 330.003 330.003" style="enable-background:new 0 0 330.003 330.003;" xml:space="preserve">
<g id="XMLID_478_">
	<path id="XMLID_479_" d="M288.416,128.293c-2.541-5.082-7.734-8.292-13.416-8.292c-5.682,0-10.876,3.21-13.417,8.292
		l-44.868,89.734L158.98,69.565c-2.181-5.609-7.503-9.371-13.519-9.557c-6.006-0.173-11.559,3.243-14.08,8.707L75.402,190.001H15
		c-8.285,0-15,6.716-15,15s6.715,15,15,15h70c5.85,0,11.167-3.402,13.619-8.715l45.2-97.935l57.2,147.086
		c2.15,5.529,7.357,9.272,13.285,9.547c0.232,0.011,0.466,0.017,0.698,0.017c5.659,0,10.864-3.194,13.413-8.292L275,168.542
		l26.583,53.167c3.704,7.41,12.716,10.413,20.124,6.708c7.41-3.705,10.414-12.715,6.709-20.124L288.416,128.293z"/>
</g>
<g>
</g>
<g>
</g>
<g>
</g>
<g>
</g>
<g>
</g>
<g>
</g>
<g>
</g>
<g>
</g>
<g>
</g>
<g>
</g>
<g>
</g>
<g>
</g>
<g>
</g>
<g>
</g>
<g>
</g>
</svg>
