<?xml version="1.0" encoding="utf-8"?>
<!-- Svg Vector Icons : http://www.onlinewebfonts.com/icon -->
<!DOCTYPE svg PUBLIC "-//W3C//DTD SVG 1.1//EN" "http://www.w3.org/Graphics/SVG/1.1/DTD/svg11.dtd">
<svg version="1.1" xmlns="http://www.w3.org/2000/svg" xmlns:xlink="http://www.w3.org/1999/xlink" x="0px" y="0px" viewBox="0 0 1000 1000" enable-background="new 0 0 1000 1000" xml:space="preserve">
<metadata> Svg Vector Icons : http://www.onlinewebfonts.com/icon </metadata>
<g><path d="M819,476c23.1,0,45.1,4.5,65.9,13.4c20.9,8.9,39.1,21.2,54.8,36.9s27.9,33.9,36.9,54.8c8.9,20.9,13.4,42.8,13.4,65.9c0,23.8-4.5,46-13.4,66.5c-8.9,20.5-21.2,38.6-36.9,54.2c-15.6,15.6-33.9,27.9-54.8,36.9c-20.9,8.9-42.8,13.4-65.9,13.4c-21.6,0-41.9-3.9-60.9-11.7c-19-7.8-35.9-18.1-50.8-30.7v139.7c0,20.1-7.1,37.2-21.2,51.4c-14.2,14.2-31.3,21.2-51.4,21.2H83.7c-20.1,0-37.4-7.1-52-21.2C17.3,952.4,10,935.2,10,915.1v-124c3.7-15.6,10.4-27.2,20.1-34.6c9.7-7.4,23.8-5.6,42.5,5.6c8.9,5.2,15.6,8.2,20.1,8.9c19.4,9.7,39.1,14.5,59.2,14.5c20.1,0,38.9-3.7,56.4-11.2c17.5-7.4,32.8-17.7,45.8-30.7c13-13,23.3-28.1,30.7-45.3s11.2-35.8,11.2-55.9c0-20.1-3.7-38.9-11.2-56.4c-7.4-17.5-17.7-32.8-30.7-45.8c-13-13-28.3-23.3-45.8-30.7c-17.5-7.4-36.3-11.2-56.4-11.2c-19.4,0-38.4,4.1-57,12.3c-4.5,1.5-8.2,3-11.2,4.5c-8.9,4.5-17.7,8.6-26.3,12.3c-8.6,3.7-16.2,5.2-22.9,4.5c-6.7-0.7-12.3-4.5-16.8-11.2c-4.5-6.7-7.1-17.9-7.8-33.5V369.8c0-20.1,7.3-37.4,21.8-52c14.5-14.5,31.8-21.8,52-21.8h174.3c-11.9-14.9-21.4-31.5-28.5-49.7c-7.1-18.2-10.6-37.8-10.6-58.7c0-24.6,4.7-47.5,14-68.7c9.3-21.2,21.8-39.7,37.4-55.3s34.1-28.1,55.3-37.4c21.2-9.3,43.8-14,67.6-14c23.8,0,46.4,4.7,67.6,14c21.2,9.3,39.7,21.8,55.3,37.4s28.1,34.1,37.4,55.3c9.3,21.2,14,44.1,14,68.7c0,41.7-13,77.8-39.1,108.4h106.2c20.1,0,37.2,7.3,51.4,21.8c14.2,14.5,21.2,31.8,21.2,52v148.6c14.9-12.7,31.8-22.9,50.8-30.7C777.1,479.9,797.4,476,819,476L819,476z"/></g>
</svg>