<?xml version="1.0" encoding="iso-8859-1"?>
<!-- Generator: Adobe Illustrator 18.1.1, SVG Export Plug-In . SVG Version: 6.00 Build 0)  -->
<svg version="1.1" id="Capa_1" xmlns="http://www.w3.org/2000/svg" xmlns:xlink="http://www.w3.org/1999/xlink" x="0px" y="0px"
	 viewBox="0 0 470.1 470.1" style="enable-background:new 0 0 470.1 470.1;" xml:space="preserve">
<g>
	<path style="fill:#010002;" d="M429.457,20.321h-12.461c-4.487,0-8.129,3.633-8.129,8.129s3.642,8.129,8.129,8.129h12.461v58.518
		h-12.461c-4.487,0-8.129,3.633-8.129,8.129c0,4.495,3.642,8.129,8.129,8.129h12.461v58.526h-12.461
		c-4.487,0-8.129,3.633-8.129,8.129s3.642,8.129,8.129,8.129h12.461v58.526h-12.461c-4.487,0-8.129,3.633-8.129,8.129
		c0,4.495,3.642,8.129,8.129,8.129h12.461v58.526h-12.461c-4.487,0-8.129,3.633-8.129,8.129c0,4.495,3.642,8.129,8.129,8.129h12.461
		v93.755h-93.893v-11.721c0-4.495-3.642-8.129-8.129-8.129c-4.487,0-8.129,3.633-8.129,8.129v11.721h-57.81v-11.721
		c0-4.495-3.642-8.129-8.129-8.129s-8.129,3.633-8.129,8.129v11.721h-57.81v-11.721c0-4.495-3.642-8.129-8.129-8.129
		s-8.129,3.633-8.129,8.129v11.721h-57.81v-11.721c0-4.495-3.642-8.129-8.129-8.129c-4.487,0-8.129,3.633-8.129,8.129v11.721H39.285
		v-11.721c0-4.495-3.642-8.129-8.129-8.129s-8.129,3.633-8.129,8.129v11.721H0V470.1h470.1V0h-40.643V20.321z"/>
	<path style="fill:#010002;" d="M6.771,369.85c0,4.487,3.642,8.129,8.129,8.129h354.804c4.487,0,8.129-3.642,8.129-8.129V12.193
		c0-4.487-1.504-4.812-3.365-0.732l-47.503,104.403c-1.861,4.089-6.958,6.812-11.388,6.088l-49.609-8.112
		c-4.43-0.723-9.844,1.837-12.095,5.723l-87.033,150.362c-2.252,3.885-7.673,6.487-12.112,5.812l-51.438-7.852
		c-4.438-0.675-10.844,1.089-14.314,3.934l-75.929,62.46c-3.463,2.853-6.275,8.803-6.275,13.29V369.85z"/>
	<path style="fill:#010002;" d="M17.655,205.255l24.508,24.508c6.771,6.771,17.737,6.771,24.508,0l117.23-117.23l18.119,18.119
		c6.771,6.771,12.25,4.495,12.25-5.072V50.47c0-9.567-7.755-17.33-17.33-17.33h-75.092c-9.567,0-11.843,5.487-5.072,12.25
		l18.119,18.119L17.655,180.747C10.892,187.51,10.892,198.484,17.655,205.255z"/>
</g>
<g>
</g>
<g>
</g>
<g>
</g>
<g>
</g>
<g>
</g>
<g>
</g>
<g>
</g>
<g>
</g>
<g>
</g>
<g>
</g>
<g>
</g>
<g>
</g>
<g>
</g>
<g>
</g>
<g>
</g>
</svg>
