<svg id="Capa_1" enable-background="new 0 0 512 512" height="512" viewBox="0 0 512 512" width="512" xmlns="http://www.w3.org/2000/svg"><g><path d="m0 172.211 4.395 4.395c10.693 10.693 10.693 28.096 0 38.789l-4.395 4.394v111.211h512v-111.211l-4.395-4.395c-10.693-10.693-10.693-28.096 0-38.789l4.395-4.395v-51.21h-512zm391 8.789h30v90h-30zm-60 0h30v90h-30zm-60 0h30v90h-30zm-60 0h30v90h-30zm-60 0h30v90h-30zm-60 0h30v90h-30z"/><path d="m30 361h151v30h-151z"/><path d="m211 361h271v30h-271z"/></g></svg>